<?xml version="1.0" standalone="no"?>
<!DOCTYPE svg PUBLIC "-//W3C//DTD SVG 20010904//EN"
 "http://www.w3.org/TR/2001/REC-SVG-20010904/DTD/svg10.dtd">
<svg version="1.0" xmlns="http://www.w3.org/2000/svg"
 width="528.000000pt" height="529.000000pt" viewBox="0 0 528.000000 529.000000"
 preserveAspectRatio="xMidYMid meet">
<metadata>
Created by potrace 1.15, written by Peter Selinger 2001-2017
</metadata>
<g transform="translate(0.000000,529.000000) scale(0.100000,-0.100000)"
fill="#000000" stroke="none">
<path d="M2695 4594 c-22 -8 -47 -16 -55 -18 -8 -2 -50 -23 -92 -46 -43 -23
-78 -39 -78 -36 0 4 -45 -16 -100 -44 -55 -28 -100 -48 -100 -44 0 3 -34 -13
-75 -36 -41 -22 -84 -43 -95 -45 -12 -2 -61 -24 -111 -49 -49 -25 -89 -43 -89
-40 0 3 -35 -13 -77 -36 -43 -23 -85 -43 -94 -45 -9 -2 -50 -20 -93 -40 -77
-37 -94 -52 -119 -115 -25 -61 -8 -90 123 -219 99 -96 120 -122 126 -154 3
-20 10 -40 15 -43 20 -12 7 -54 -26 -87 -19 -19 -35 -44 -35 -56 0 -12 -4 -21
-9 -21 -25 0 -29 -227 -6 -313 17 -66 48 -113 79 -121 21 -5 44 -60 52 -121 1
-11 17 -51 34 -90 18 -38 41 -90 52 -114 11 -24 39 -71 63 -105 24 -33 54 -76
67 -93 13 -18 52 -56 88 -85 35 -29 75 -63 89 -76 24 -22 144 -84 157 -82 4 1
10 -3 13 -9 4 -6 40 -16 81 -23 41 -7 78 -16 81 -22 4 -5 42 -6 95 -1 49 4 99
7 111 6 13 0 53 11 90 25 38 13 77 27 88 29 10 3 41 18 68 35 26 16 51 30 53
30 14 0 126 95 179 152 77 83 102 114 126 161 11 20 23 37 27 37 5 0 24 37 42
83 19 45 37 84 40 87 4 3 12 21 19 40 8 27 19 38 42 45 22 7 38 23 53 50 11
22 24 42 28 45 25 19 43 281 25 360 -4 19 -18 44 -31 55 -31 26 -43 63 -22 71
8 3 18 20 22 37 7 32 81 120 95 112 4 -3 9 -2 11 2 4 11 98 86 122 98 40 20
67 76 65 130 -3 63 -30 98 -113 144 -34 18 -63 37 -66 41 -3 4 -29 20 -59 34
-29 15 -75 43 -101 61 -26 19 -75 47 -108 64 -33 17 -66 36 -73 44 -8 7 -53
35 -102 61 -48 26 -93 54 -101 61 -7 7 -45 29 -85 49 -39 20 -79 44 -89 54
-10 10 -54 37 -100 60 -45 24 -82 47 -82 52 0 8 -63 30 -85 30 -5 -1 -28 -8
-50 -16z m69 -369 c17 -14 37 -30 44 -36 7 -6 40 -16 73 -22 40 -8 59 -16 60
-27 3 -50 -4 -186 -11 -199 -4 -9 -13 -35 -20 -59 -16 -60 -58 -104 -142 -145
-68 -34 -73 -35 -100 -21 -16 8 -37 23 -48 32 -10 9 -30 28 -44 41 -15 13 -38
44 -53 68 -22 39 -25 54 -24 131 0 48 4 110 7 138 l6 51 51 7 c29 4 62 8 74
10 13 2 37 15 55 29 18 14 35 26 37 27 2 0 17 -11 35 -25z m-880 -654 c4 -5
39 -15 79 -22 39 -7 77 -16 83 -20 6 -5 54 -14 107 -21 53 -7 97 -16 97 -20 0
-4 18 -8 41 -8 22 0 70 -4 107 -10 167 -23 280 -31 457 -32 206 0 410 8 425
17 5 3 31 6 57 6 26 0 77 7 112 15 35 8 67 12 70 9 8 -8 -39 -94 -68 -125 -13
-14 -39 -44 -58 -67 -20 -24 -39 -41 -43 -38 -5 3 -10 2 -12 -3 -6 -14 -83
-69 -133 -94 -73 -38 -204 -89 -228 -90 -12 -1 -45 -7 -73 -14 -74 -18 -259
-17 -372 2 -53 9 -101 20 -107 24 -5 4 -47 20 -92 34 -46 15 -83 32 -83 37 0
6 -4 7 -10 4 -5 -3 -10 -2 -10 2 0 5 -20 19 -44 31 -25 11 -55 29 -67 39 -47
37 -179 167 -174 171 2 2 -7 19 -20 36 -38 50 -78 146 -60 146 7 0 16 -4 19
-9z"/>
<path d="M1761 2385 c-41 -8 -79 -12 -83 -9 -4 3 -8 1 -8 -5 0 -6 -6 -8 -13
-5 -7 2 -46 -7 -86 -21 -41 -14 -81 -25 -88 -25 -8 0 -49 -16 -91 -36 -42 -19
-85 -37 -95 -39 -10 -2 -46 -23 -80 -47 -34 -24 -75 -50 -90 -58 -28 -14 -164
-134 -226 -200 -18 -19 -49 -61 -68 -92 -20 -32 -39 -58 -43 -58 -4 0 -18 -24
-30 -52 -12 -29 -35 -79 -50 -110 -16 -31 -34 -83 -40 -115 -6 -32 -16 -66
-21 -75 -4 -9 -14 -58 -21 -107 -6 -50 -15 -91 -20 -91 -4 0 -8 -17 -8 -38 0
-38 1 -39 60 -63 33 -13 60 -27 60 -31 0 -3 17 -12 38 -19 20 -7 57 -21 82
-32 25 -11 47 -21 50 -21 3 -1 10 -5 16 -8 21 -14 178 -70 261 -93 45 -13 88
-27 94 -31 13 -8 156 -46 269 -72 41 -10 80 -20 85 -24 6 -4 51 -12 100 -19
50 -7 92 -15 95 -19 5 -6 43 -12 260 -40 425 -55 850 -67 1245 -35 39 4 90 8
115 9 25 2 79 9 120 16 41 7 82 13 90 12 17 0 141 22 250 45 41 9 84 17 95 19
36 4 109 23 152 38 22 8 43 12 46 10 2 -3 42 10 88 27 46 17 91 32 99 32 8 0
44 13 80 28 73 31 68 16 56 164 -4 44 -11 105 -16 135 -6 30 -12 76 -15 102
-2 25 -15 73 -29 107 -13 33 -22 62 -19 65 9 9 -100 209 -147 270 -82 106
-121 149 -179 195 -31 25 -60 51 -66 57 -9 10 -65 48 -170 117 -22 14 -71 38
-110 53 -38 15 -72 31 -75 35 -3 4 -43 17 -90 29 -47 12 -94 25 -105 30 -49
22 -83 22 -104 1 -12 -12 -18 -21 -15 -21 3 0 -1 -7 -9 -15 -8 -8 -25 -31 -38
-52 -13 -21 -26 -40 -29 -43 -3 -3 -14 -18 -24 -35 -11 -16 -25 -37 -33 -45
-8 -8 -38 -50 -66 -93 -118 -175 -171 -253 -182 -262 -6 -5 -22 -28 -35 -50
-14 -22 -30 -47 -37 -55 -22 -26 -62 -84 -90 -129 -47 -74 -83 -121 -92 -121
-9 0 -21 119 -21 211 0 32 -3 60 -7 62 -5 3 -60 8 -123 12 l-116 7 -17 -90
c-9 -49 -17 -102 -17 -118 0 -16 -3 -39 -6 -52 -6 -20 -9 -18 -35 23 -16 25
-29 49 -29 53 0 4 -11 24 -25 44 -14 20 -25 42 -25 48 0 5 -23 46 -50 90 -28
44 -48 80 -45 80 3 0 -6 18 -20 40 -14 22 -25 42 -25 45 0 3 -12 24 -27 48
-14 23 -26 48 -26 54 0 7 -4 13 -9 13 -4 0 -8 5 -8 10 0 6 -15 34 -33 63 -18
29 -45 77 -59 108 -14 31 -43 83 -63 115 -21 33 -38 64 -38 70 0 16 -50 87
-62 90 -5 1 -44 -4 -84 -11z m-124 -190 c25 -18 47 -77 38 -102 -6 -17 -183
-114 -188 -103 -1 3 -22 -7 -47 -21 -25 -14 -64 -33 -86 -43 -41 -18 -42 -18
-68 5 -14 12 -31 38 -37 56 -10 31 -9 37 12 59 12 13 25 22 27 19 3 -3 39 13
79 35 41 22 79 40 84 40 4 0 41 16 81 35 85 41 78 39 105 20z m2015 -108 c7
-7 49 -34 93 -59 44 -26 85 -52 91 -57 7 -5 15 -7 18 -4 3 4 6 2 6 -4 0 -5 22
-22 50 -37 27 -15 51 -30 54 -34 8 -13 -23 -87 -45 -104 -26 -22 -43 -23 -62
-4 -7 8 -45 30 -83 50 -38 20 -80 45 -94 55 -14 11 -51 35 -82 55 -65 40 -72
60 -38 111 28 42 67 56 92 32z"/>
<path d="M2446 2049 c-22 -35 -34 -267 -15 -291 11 -14 42 -18 163 -25 186
-10 180 -15 190 152 6 100 5 119 -11 145 -16 28 -21 30 -83 30 -36 0 -102 3
-146 6 -79 7 -82 6 -98 -17z"/>
</g>
</svg>
